<?xml version="1.0" encoding="UTF-8"?>
<svg id="uuid-c55d7d42-65c3-4eea-b104-77e055a756e9" data-name="Layer 2" xmlns="http://www.w3.org/2000/svg" viewBox="0 0 252.09 683.48">
  <g id="uuid-72d02460-8c09-40e1-bbd1-080c75c591fd" data-name="Layer 1">
    <path d="M238.78,217.67c3.54,12.74,7.13,23.43,7.15,36.77.01,10.37,4.71,16.88,5.89,26.71,1.16,9.65-1.7,21.33-2.36,31.1-.83,12.4,1.52,29.47-1.21,41.23-1.35,5.82-7.46,10.61-9.22,16.32.77,2.78,1.54,5.55,2.31,8.33-1.15,2.03-2.3,4.07-3.45,6.1-2.75,7.34-9.07,13.01-9.98,20.65-.36,3.04,3.31,9.37,1.95,11.93-2.99,1.35-5.97,2.71-8.96,4.07-4.61.49-5.37,2.53-2.29,6.13-.48,1.59-.73,5.81-1.11,7.84-.91,4.85-3.05,9.28-3.85,14.14-.53,3.21-.67,6.5-1.31,9.66-.05.27-2.74,10.5-2.91,10.95.56,2.49.33,4.9-.69,7.23-1.25.35-2.5.7-3.76,1.04-4.3-.1-5.13,1.88-2.49,5.93,2.65,4.31,1.45,6.45-3.61,6.43-1.51.51-3.02,1.02-4.53,1.54.3,1.66.6,3.31.89,4.96,2.33,4.12,1.2,6.06-3.41,5.82-4.54-.02-7.25,2.29-8.15,6.92-3.18,3.81-5.32,9.41-7.78,13.76-5.55,9.82-10.35,21.84-17.34,30.69-10.82,13.71-26.73,16.03-40.54,25.16-9,5.95-15.38,18.67-25.85,19.48-10.57.82-20.12-7.99-32.34-5.13-6.57,1.54-11.14,4.3-6.57,10.75,2.33,3.3,11.04,6.24,14.52,8.2,5.27,2.98,11.39,7.76,17.12,9.67,7.34,2.45,6.45-.27,12.43,1.26,5.66,1.45,10.4,4.89,16.1,6.16,4.97,1.11,5.93-1.07,11.54.41,3.48.91,6.42,3.72,9.85,4.84,7.07,2.3,12.03.47,18.8,2.73,6.41,2.14,6.49,5.18,9.94,9.42,3.49,4.29.89,3.18,6.22,7.67,3.63,3.07,12.06,4.5,14.76,8.34,1.74,2.48,3.41,13.87,1.68,16.89-3.89,6.79-25.43,2.38-33.42,1.5-11.63-1.29-21.05-5.49-32.96-4.99-7.83.33-10.13.86-17.29-2.11-2.56-1.06-8.74-6.4-11.93-6.74-8.92-.95-6.63,2.34-16.21-1.2-6.38-2.36-12.87-7.27-18.8-10.62-10.22-5.77-20.44-11.55-30.66-17.32-13.67-7.72-23.16-13.91-24.75-31.15-.61-6.6.25-18.51,2.34-25.3,1.25-4.07,2.72-6.85,3.37-10.25.64-3.33-.46-6.87.74-10.81,1.22-4.01,5.53-6.83,6.6-10.91,1.46-5.57-1.56-10.06-.69-15.36,2.06-12.53,19.55-23.62,20.45-36.2.61-8.52-2.47-5.33.94-14.66,1.44-3.94,4.9-8.67,6.87-12.16,3.15-5.62,5.44-9.82,6.64-15.73,1.26-6.17-1.7-5.01,1.08-12.45,3.01-8.06,8.13-14.23,10.14-22.75-.56-2.37-1.12-4.74-1.68-7.11,2.3-4.07,4.59-8.13,6.89-12.2,2.14-6,1.44-4.87,2.19-11.37.72-6.26,2.94-24.64,7.27-27.54,15.85-10.63,22.34,13.66,23.13,25.12-1.48,1.85-2.46,3.92-2.96,6.21,1.65,2.35,2.26,4.92,1.83,7.73-.58,4.04-3.67,7.08-4.44,10.91-1.3,6.47-.19,11.42-2.03,17.53-2.73,9.02-5.61,17.03-7.67,26.68-1.97,9.21-2.56,17.25-5.35,25.25-2.23,6.4-8.79,11.91-10.44,18.48-1.21,4.83,2.14,8.13.46,13.86-1.79,6.11-15.23,20.32-1.5,22.53,9.48,1.53,31.37-22.38,40.86-29.27,6.94-5.04,13.79-9.56,21.81-12.66,2.53-.98,7.07-1.36,9.24-2.97,2.34-1.74,10.15-15.68,10.51-18.59.38-3.07-4.19-9.43-2.92-12.12,1.72-3.64,11.88-4.1,13.24-7.86-.8-2.87-1.6-5.74-2.39-8.61.92-1.63,1.84-3.25,2.76-4.88,1.82-5.41,6.77-9.76,8.57-15.17,1.85-5.55.52-3.93,1.32-10.05.91-6.9.17-8.02,4.17-15.1,2.07-3.67,8-10.85,8.48-15.01.37-3.27-3.27-7.06-2.87-10.34.58-4.74,6.49-9.61,8.01-14.17,2.6-7.84.37-11.26,3.69-19.36,1.05-2.58,6.62-9.07,6.98-12.35-.84-3.51-1.68-7.02-2.52-10.53,1.15-2.04,2.3-4.08,3.45-6.12,1.99-8.5,2-5.69,1.47-13.77-.92-14.23.72-33.25-3.77-46.86-3.67-11.15-15.27-18.12-19.02-29.95-2.67-8.41-3.47-17.06-7.13-25.19-5.06-11.22-10.06-21.06-13.66-33-.96-3.17-1.93-9.95-3.75-12.26-2.54-3.21-8.58-5.96-11.69-9.64-7.86-9.31-15.82-21.06-20.09-32.27-2.01-5.29-2.1-15.37-5.59-19.75-1.88-2.35-5.58-2.48-7.36-4.73-4.57-5.79-2.55.31-6.89-9.37-1.38-4.52-2.75-9.03-4.13-13.55-2.04-1.15-4.08-2.3-6.12-3.45-4.77-1.02-7.32-3.9-7.66-8.64-.61-1.73-1.22-3.47-1.83-5.2-2.79-3.28-8.93-4.09-12.27-6.93-6.22-5.28-5.16-7.02-10.16-12.96-2.15-2.54-6.75-3.03-8.63-5.83-3.17-4.73-3.08-13.5,3.38-16.93,6.87-3.64,11.62,2.14,18.68,3.85,5.9,1.44,7.04-1.15,13.6.87,5.84,1.8,10.84,5.84,14.67,10.42.62,2.35,1.24,4.69,1.85,7.04,2.08,1.18,4.16,2.35,6.25,3.53,4.87,3.79,12.93,5.3,17.22,9.73,6.09,6.28,9.04,17.11,14.45,24.33,14.1,18.82,29.33,36.34,41.66,56.49,11.38,18.6,17.96,40.27,31.26,57.66,10.16,13.28,14.66,30.32,27.3,42.57,2.56,9.2-2.4-2.32,0,0ZM236.2,327.29c.02-1.76.03-3.51.05-5.27-4.12,1.15-3.21.04-3.52,6.23,1.16-.32,2.31-.64,3.47-.97.02-1.71-1.3.36,0,0Z"/>
  </g>
</svg>