<?xml version="1.0" encoding="UTF-8"?>
<svg id="uuid-8aa5059b-5bba-4550-acc4-6fbf507649a2" data-name="Layer 2" xmlns="http://www.w3.org/2000/svg" viewBox="0 0 453.81 581.99">
  <g id="uuid-86220366-74eb-4677-a034-9c7bf148c0e6" data-name="Layer 1">
    <path d="M92.46,525.98c6.46.27,20.49,2.96,26.7.35,2.93-1.23,4.46-4.65,7.55-5.82,3.2-1.21,7.52.55,10.73-.63,1.96-.72,2.96-3.93,4.95-4.61,2.85-.97,5.56-.65,8.44-1.47,6.94-1.97,13.21-5.79,19.58-9.07,6.82-3.52,10.32-2.41,17.09-3.95,1.84-.42,3.68-4.29,5.33-4.88,4.32-1.54,10.11,1.1,14.59,0,6.74-1.66,9.69-7.84,17.86-6.29,4.77.9,15.01,5.47,19.68,8.72,8.4,5.84,5.09,10.56,1.44,18.41-3.98,8.56-9.07,10.42-17.22,14.6-13.89,7.12-27.66,13.74-42.16,18.51-4.94,1.62-9.71,1.8-14.69,3.72-5.61,2.16-10.67,6.04-16.2,8.39-2.87,1.22-4.56,1.4-7.38,2.14-1.43-.24-2.87-.48-4.3-.72-1.85.45-3.33,1.47-4.46,3.08-5.18,1.48.34,1.6-8.5,2.55-4.94.53-13.38-2-18.02,0-6.79,2.92-4.61,4.92-12.78,6.3-3.56.6-8.8-1.28-12.04,0-2.59,1.03-3.85,4.77-6.38,5.89-3.99,1.77-14.06,0-18.5,0-15.8,0-32.78,2.83-46.62-6.02C8.94,569.94.11,558.05,0,548.08c-.06-6.04,3.2-10.51,5.74-15.6,1.66-3.34,3.92-6.27,5.03-9.9,1.1-3.58-.32-9.62.94-12.36,2.3-5.03,11.46-7.79,15-12.12,4.16-5.1,5.47-13.09,8.59-19.12,5.91-11.45,15.52-18.01,21.01-29.58,4.54-9.57,8.78-18.63,14.75-28.02,8.45-13.29,15.7-26.15,23.15-40.26,6.69-12.66,13.18-39.97,27.34-46.93,4.91-2.41,9.14-1.48,13.95,2.89,1.69.87,3.38,1.73,5.07,2.6,0,4.09,0,8.18,0,12.27-1.06,7.19-4.51,11.49-6.12,18.81-3.61,16.47-16.13,34.86-24.09,50.86-4.87,9.8-9.82,19.55-14.75,29.31-4.33,8.57-13.08,18.13-6.82,26.22,10.46-10.46,21.28-23.56,33.37-30.32,4.6-2.57,6.45-3.02,11.04-7.62,5.08-5.09,9.71-10.95,15.14-15.64,8.2-7.08,17.61-11.85,25.67-19.16,4.52-4.1,8.45-4.43,13.15-7.27,4.05-2.44,7.01-7.35,11.16-10.04,1.71-1.25,3.54-2.29,5.49-3.13,3.67.02,5.11-1.66,4.33-5.04,3.44-4.77,7.17-9.93,11.95-14.72,5.03-5.03,8.14-5.49,13.29-9.27,4.24-.5,5.92-2.49,5.03-5.96-1.18-3.4.06-4.95,3.7-4.63,4.04-4.27,13.5-9.36,19.06-12.9,8.57-5.47,16.29-10.31,20.05-20.34-.12,1.39.44-1.13,3.48-3.12,3.2-2.1,6.88-3.24,9.87-5.75,5.26-4.42,2.7-7.22,5.23-11.61,3.61-6.27,12.27-12.27,17.41-17.41,4.38-4.38,9.63-6.91,13.95-10.48,4.6.24,6.33-1.55,5.19-5.4v-2.78c5.14-6.52,13.34-11.25,17.17-18.76,2.74-5.37,2.01-6.22,6.18-11.2,3.93-4.7,8.97-8.5,13.07-13.07,7.05-7.87,8.82-17.8,14.84-26.46,6.45-9.28,11.67-17.77,16.71-28,3.53-7.16,5.32-17.85,13.6-20.95-6.08-9.35-9.02-9.68-1.04-17.66-5.01-2.95-10.02-5.89-15.02-8.84,4.67-5.13,6.55-5.5,5.53-11.29-1.09-6.16-7.05-12.54-11.03-16.91-4.33-4.75-11.54-9.4-14.85-14.85-1.23-2.02-1.12-5.32-2.22-6.85-1.76-2.46-4.39-3.37-7.72-5.03-5.68-2.84-10.71-6.86-16.64-9.22-5.55-2.21-11.64-2.18-16.64-4.02-3.19-1.18-4.46-3.73-8.02-4.61-2.92-.72-12.6-1.11-15.15,0-2.29,1-4.06,5.49-6.44,5.88-1.45.24-4.55-4.07-6.88-4.06-4.78.03-12.42,7.11-16.91,8.68-7.4,2.59-15.3-.56-22.78,1.28-6.06,1.49-11.82,7.38-17.54,9.98-3.8,1.73-5.31,1.41-9.24,2.63h-5.83c-1.69,1.57-3.37,3.15-5.06,4.72-3.88,1.46-9.42.01-13.26,1.58-1.99.81-2.95,4.1-5.02,4.77-4.73,1.52-9.24,1.65-14.02,3.54-4.9,1.94-9.37,4.64-14.01,7.07-6.45,3.38-12.26,3.08-18.18,5.27-10.2,3.78-18.21,14.13-27.1,16.08-6.28,1.38-10.73-1.09-16.45,2.19-4.87,2.79-8.76,7.61-13.86,10.53-9.31,5.31-15.79,12.89-24.85,18.12-9.8,5.65-16.8,23.5-29.22,14.75-22.17-15.61,25.06-50.17,37.35-57.74,11.12-6.85,17.84-16.41,30.16-21.57,14.74-6.18,28.83-14.19,43.21-21.26,6.53-3.21,13.07-7.79,19.85-10.35,5.15-1.94,10.42-1.91,15.41-4,3.71-1.56,7.52-3.7,11.32-5.38,2.12-.94,3.32-3.98,5.53-4.7,3.87-1.26,9.92,0,13.92,0,9.22,0,13.3-2.95,21.29-7.51,2.58-1.47,6.25-4.31,8.91-5.09,3.29-.96,7.47,1.36,10.66,0,2.17-.92,3.34-4.51,5.46-5.46,1.67-.74,8.46,0,9.69,0,3,0,6.87.49,9.73,0,2.54.97,4.57.54,6.11-1.28,1.33-1.1,2.66-2.2,3.99-3.3.35-.29.7-.58,1.05-.87,1.32-1.68,2.54-1.1,3.65,1.74.44.44.89.89,1.33,1.33,1.34,2.22,2.81,1.83,4.42-1.18,2.64-.45,4.77-2.3,8.07-2.87,2.79-.48,6.86,0,9.53,0s8.1-.76,10.17,0c2.51.92,3.89,4.75,6.38,5.72,3.3,1.27,8.44-1.38,11.72,0,7.93,3.35,3.03,5.18,12.86,6.3,8.78,1,11.16-.47,17.66,5.63,4.6,4.32,8.75,4.52,13.61,7.41,13.61,8.09,23.62,24.49,30.06,37.93,9.01,18.79,26.51,41.57,21.29,63.75-1.5,6.37-4.63,9.26-5.78,15.83-.84,4.74,1.07,10.12,0,14.81-.85,3.75-3.44,5.28-4.66,8.69-1.68,4.67-1.01,10.6-3.23,14.83-2.66,5.08-8.19,9.61-11.15,14.96-12.07,21.77-25.84,39.07-42.34,57.55-3.92,4.39-5.66,8.72-8.73,13.5-4.34,6.76-11.23,12.5-17.04,18.31-5.25,5.25-10.41,11.9-16.36,16.36-.68.68-1.36,1.36-2.05,2.05-1.83,2.79-4.53,3.47-8.1,2.05-2,1.73-3.26,7.37-4.82,9.75-3.77,5.75-9.32,11.07-14.52,15.57-2.27,1.97-4.26,3.59-6.59,5.11-2.22.58-4.45,1.17-6.67,1.75-.29,1.35-.59,2.7-.88,4.06-4.15,5.65-6.99,11.73-12.86,17.16-5.44,5.03-11.97,7.26-17.85,11.55-10.93,7.98-18.93,19.7-28.66,28.93-10.81,10.25-24.2,16.77-34.91,27.6-11.13,11.26-20.6,19.65-33.66,28.17-11.47,7.47-21.74,21.21-31.48,30.95-6.4,6.4-12.14,9.3-20.27,13.12-1.91.9-6.92,2.49-8.7,4.09-2.36,2.12-2.22,6.14-4.99,8.62-4.19,3.75-9.06,5.63-13.21,9.73.93-.92-5.05,6.9-3.8,4.4-1.26,2.52-5.86-.24-1.55,5.31,1.42-1.67,2.84-3.33,4.48-5.9,8.32.35-1.63,2.57,0,0Z"/>
  </g>
</svg>